<svg width="547" height="612" viewBox="0 0 547 612" fill="none" xmlns="http://www.w3.org/2000/svg">
<path fill-rule="evenodd" clip-rule="evenodd" d="M0.203344 333.35L0 334.208C0.0873282 334.024 0.181525 333.841 0.282548 333.658C2.9758 343.344 24.7842 352.221 59.729 359.32C60.8723 359.552 62.0297 359.782 63.2008 360.011L68.6947 376.834L61.5788 504.073C61.6845 504.058 61.7901 504.043 61.8955 504.028C63.2179 503.834 64.5174 503.577 65.7921 503.259C65.8848 503.236 65.9774 503.212 66.0699 503.189C88.5935 497.395 103.28 472.597 98.9797 446.079L78.8556 321.974L77.9785 306.495C78.0634 306.481 78.1484 306.467 78.2334 306.453L78.8556 317.434L86.4079 364.008C135.326 371.459 201.13 376.022 273.5 376.022C345.422 376.022 410.86 371.515 459.683 364.146L467.258 317.434L467.873 306.576C467.958 306.59 468.043 306.605 468.128 306.619L467.258 321.974L447.134 446.079C442.834 472.597 457.52 497.395 480.044 503.189L480.13 503.211L480.208 503.23L480.321 503.259C481.596 503.577 482.896 503.834 484.218 504.028C484.323 504.043 484.429 504.058 484.535 504.073L477.419 376.834L482.853 360.194C484.023 359.968 485.179 359.741 486.322 359.511C524.272 351.889 547 342.186 547 331.622C547 331.042 546.932 330.465 546.796 329.891C546.766 329.764 546.732 329.636 546.696 329.509C546.666 329.406 546.634 329.304 546.6 329.201C546.197 327.982 545.49 326.776 544.493 325.585L545.449 329.869C545.069 329.021 544.542 328.179 543.872 327.345L531.993 274.104H531.73C525.579 250.52 411.705 207 272.678 207C133.65 207 20.6633 250.52 14.5116 274.104H14.249L1.6857 327.097C1.3159 327.539 0.986084 327.982 0.696853 328.428C0.234918 329.483 0 330.548 0 331.622C0 332.201 0.0681924 332.777 0.203344 333.35ZM7.74377 320.91L17.6441 279.15H17.8196L18.7611 275.54C19.1151 274.183 20.5946 271.745 24.3658 268.453C27.9809 265.298 33.1428 261.838 39.8022 258.224C53.1005 251.007 71.8607 243.452 94.8891 236.589C140.919 222.869 203.546 212.045 272.678 212.045C341.81 212.045 404.66 222.869 450.914 236.59C474.055 243.455 492.928 251.01 506.311 258.229C513.012 261.844 518.209 265.306 521.848 268.462C525.647 271.758 527.13 274.194 527.481 275.54L528.422 279.15H528.545L537.9 321.075C533.158 318.351 527.123 315.811 520.02 313.44C514.13 311.474 507.415 309.595 499.958 307.814L499.969 307.78C498.534 307.433 497.07 307.089 495.577 306.749C488.6 305.159 480.995 303.647 472.819 302.223C471.37 301.97 469.904 301.721 468.419 301.474L468.414 301.567C465.631 301.108 462.79 300.658 459.892 300.219C410.78 292.773 344.959 288.231 272.678 288.231C200.609 288.231 134.962 292.746 85.8966 300.153C83.1093 300.574 80.3739 301.004 77.6923 301.444L77.687 301.349C76.2029 301.594 74.7362 301.842 73.2871 302.093C65.1018 303.507 57.4813 305.009 50.4842 306.589C48.9905 306.926 47.5252 307.267 46.0889 307.611L46.1005 307.646C38.5316 309.437 31.7158 311.327 25.7366 313.307C18.5991 315.669 12.5273 318.199 7.74377 320.91ZM52.0647 311.429L73.1785 376.083L66.3649 497.914C85.8673 492.12 98.4032 470.322 94.6206 446.995L74.4489 322.597L73.5785 307.235C65.8959 308.559 58.7086 309.959 52.0647 311.429ZM472.528 307.365L471.665 322.597L451.493 446.995C447.71 470.322 460.246 492.12 479.749 497.914L472.935 376.083L493.997 311.586C487.373 310.107 480.2 308.698 472.528 307.365ZM541.5 332.161L542.565 331.705C542.532 332.224 542.173 333.587 539.773 335.708C537.317 337.88 533.411 340.205 527.933 342.563C518.415 346.662 504.941 350.533 488.115 354.02L501.217 313.901C518.373 318.187 530.502 322.861 537.044 327.542C539.755 329.482 541.019 331.089 541.5 332.161ZM8.47433 327.427C15.1545 322.714 27.4728 318.021 44.8399 313.726L57.9335 353.821C41.3994 350.355 28.1674 346.515 18.8175 342.456C13.4241 340.114 9.58413 337.809 7.17189 335.66C4.68083 333.44 4.43274 332.063 4.43274 331.622C4.43274 331.479 4.45185 331.291 4.52732 331.044C5.28077 330.023 6.53574 328.794 8.47433 327.427ZM273.5 370.976C202.835 370.976 138.514 366.616 90.182 359.485L83.2622 316.811L82.6663 306.294C131.666 298.561 198.69 293.781 272.678 293.781C347.045 293.781 414.376 298.611 463.44 306.413L462.851 316.811L455.91 359.618C407.681 366.67 343.723 370.976 273.5 370.976Z" fill="white"/>
<path fill-rule="evenodd" clip-rule="evenodd" d="M484.754 504.028C484.881 504.028 485.007 504.028 485.133 504.03C486.431 504.041 487.716 504.113 488.986 504.242L489.077 504.251L489.187 504.263C513.162 506.82 531.929 529.909 531.929 558.014C531.929 586.119 513.162 609.208 489.187 611.765C487.728 611.92 486.249 612 484.754 612V504.028ZM489.187 606.694V509.799L489.297 509.814L489.271 509.344C510.736 511.926 527.496 532.709 527.496 558.014C527.496 583.352 510.692 604.156 489.187 606.694Z" fill="white"/>
<path fill-rule="evenodd" clip-rule="evenodd" d="M56.9266 611.765C58.3859 611.92 59.8645 612 61.3593 612V504.028C61.2329 504.028 61.1065 504.028 60.9803 504.03C59.6829 504.041 58.398 504.113 57.1276 504.242L57.0657 504.248L56.9266 504.263C32.9515 506.82 14.1848 529.909 14.1848 558.014C14.1848 586.119 32.9515 609.208 56.9266 611.765ZM56.9266 606.694V509.799L56.816 509.814L56.8423 509.344C35.3778 511.926 18.6175 532.709 18.6175 558.014C18.6175 583.352 35.4217 604.156 56.9266 606.694Z" fill="white"/>
<path d="M20.845 266.2C19.6701 267.224 18.5931 268.257 17.632 269.297C22.0216 120.99 135.28 2.5 274 2.5C412.683 2.5 525.917 120.926 530.365 269.177C529.425 268.175 528.378 267.181 527.24 266.195C523.078 262.59 517.408 258.859 510.454 255.114C496.537 247.619 477.2 239.917 453.775 232.978C406.91 219.097 343.414 208.192 273.621 208.192C203.827 208.192 140.552 219.097 93.9076 232.979C70.5924 239.918 51.3651 247.62 37.5304 255.117C30.6175 258.863 24.9828 262.594 20.845 266.2Z" stroke="white" stroke-width="5"/>
</svg>
