<svg width="62" height="72" viewBox="0 0 62 72" fill="none" xmlns="http://www.w3.org/2000/svg">
<path d="M1.0223 39.1283L1 39.2264C1.00958 39.2054 1.01991 39.1844 1.03099 39.1635C1.32641 40.2714 3.71856 41.2867 7.55163 42.0987C7.67704 42.1252 7.80398 42.1516 7.93245 42.1777L8.53507 44.1019L7.75452 58.6554C7.76612 58.6537 7.7777 58.652 7.78927 58.6502C7.93432 58.6281 8.07686 58.5987 8.21668 58.5623C8.22685 58.5596 8.23701 58.557 8.24716 58.5542C10.7178 57.8916 12.3287 55.0552 11.857 52.0221L9.6496 37.8271L9.5534 36.0566C9.56271 36.055 9.57203 36.0534 9.58136 36.0518L9.6496 37.3078L10.478 42.6349C15.8438 43.4871 23.0618 44.009 31 44.009C38.8891 44.009 46.067 43.4935 51.4223 42.6507L52.2531 37.3078L52.3206 36.0659C52.3299 36.0675 52.3393 36.0691 52.3486 36.0708L52.2531 37.8271L50.0457 52.0221C49.5741 55.0552 51.185 57.8916 53.6556 58.5542L53.6651 58.5568L53.6736 58.559L53.6861 58.5623C53.8259 58.5987 53.9684 58.6281 54.1135 58.6502C54.1251 58.652 54.1366 58.6537 54.1482 58.6554L53.3677 44.1019L53.9637 42.1987C54.0921 42.1729 54.2189 42.1468 54.3443 42.1206C58.507 41.2487 61 40.139 61 38.9306C61 38.8643 60.9925 38.7983 60.9776 38.7327C60.9743 38.7181 60.9707 38.7035 60.9666 38.6889C60.9634 38.6772 60.9599 38.6655 60.9562 38.6537C60.9119 38.5143 60.8344 38.3763 60.725 38.2401L60.8299 38.7302C60.7882 38.6331 60.7304 38.5368 60.6569 38.4414L59.3539 32.3518H59.3251C58.6503 29.6542 46.1596 24.6765 30.9098 24.6765C15.66 24.6765 3.26654 29.6542 2.59177 32.3518H2.56296L1.1849 38.4131C1.14434 38.4636 1.10816 38.5143 1.07644 38.5653C1.02577 38.6859 1 38.8078 1 38.9306C1 38.9968 1.00748 39.0627 1.0223 39.1283ZM2.93537 32.9289L1.84941 37.7054C2.37411 37.3953 3.04013 37.106 3.82302 36.8357C4.47888 36.6093 5.2265 36.3931 6.05673 36.1883L6.05545 36.1842C6.213 36.1449 6.37373 36.1059 6.53757 36.0673C7.30508 35.8867 8.14097 35.7149 9.03881 35.5531C9.19775 35.5244 9.35863 35.4961 9.52142 35.4681L9.52201 35.4789C9.81615 35.4286 10.1162 35.3794 10.4219 35.3312C15.8039 34.4841 23.0046 33.9676 30.9098 33.9676C38.8383 33.9676 46.0581 34.4871 51.4452 35.3387C51.7631 35.389 52.0747 35.4404 52.38 35.493L52.3806 35.4823C52.5434 35.5105 52.7042 35.5391 52.8631 35.568C53.7599 35.7309 54.5942 35.9038 55.3594 36.0856C55.5232 36.1245 55.6838 36.1639 55.8412 36.2036L55.84 36.2074C56.658 36.4112 57.3945 36.6261 58.0406 36.851C58.8197 37.1221 59.4817 37.4127 60.0018 37.7242L58.9757 32.9289H58.9622L58.8589 32.516C58.8204 32.362 58.6579 32.0834 58.2411 31.7065C57.842 31.3454 57.2719 30.9494 56.5368 30.536C55.0688 29.7103 52.9987 28.8461 50.4605 28.061C45.3868 26.4916 38.4929 25.2536 30.9098 25.2536C23.3268 25.2536 16.4573 26.4916 11.4083 28.0608C8.88234 28.8459 6.82455 29.71 5.36588 30.5354C4.63541 30.9487 4.06921 31.3446 3.67267 31.7054C3.259 32.0819 3.09672 32.3608 3.05789 32.516L2.95462 32.9289H2.93537ZM9.02689 44.016L6.71094 36.6209C7.4397 36.4529 8.22806 36.2927 9.07077 36.1413L9.16624 37.8983L11.3789 52.1269C11.7938 54.795 10.4187 57.2883 8.27951 57.951L9.02689 44.016ZM52.7365 37.8983L52.8312 36.1562C53.6728 36.3086 54.4596 36.4698 55.1862 36.6389L52.8759 44.016L53.6232 57.951C51.484 57.2883 50.109 54.795 50.5239 52.1269L52.7365 37.8983ZM54.2139 58.6504C54.2 58.6503 54.1862 58.6502 54.1723 58.6502V71C54.3363 71 54.4984 70.9909 54.6585 70.9731C57.2883 70.6806 59.3468 68.0397 59.3468 64.8251C59.3468 61.6105 57.2883 58.9696 54.6585 58.6771L54.6465 58.6758L54.6365 58.6748C54.4971 58.66 54.3562 58.6518 54.2139 58.6504ZM54.6585 59.3103V70.3932C57.0174 70.1028 58.8606 67.7233 58.8606 64.8251C58.8606 61.9308 57.0222 59.5537 54.6678 59.2582L54.6707 59.312L54.6585 59.3103ZM7.73046 71C7.56649 71 7.4043 70.9909 7.24423 70.9731C4.61442 70.6806 2.55592 68.0397 2.55592 64.8251C2.55592 61.6105 4.61442 58.9696 7.24423 58.6771L7.25949 58.6755L7.26628 58.6748C7.40563 58.66 7.54657 58.6518 7.68888 58.6504C7.70273 58.6503 7.71659 58.6502 7.73046 58.6502V71ZM7.24423 59.3103V70.3932C4.88537 70.1028 3.04214 67.7232 3.04214 64.8251C3.04214 61.9308 4.88056 59.5537 7.23498 59.2582L7.2321 59.312L7.24423 59.3103ZM60.5135 38.9401L60.3967 38.9923C60.344 38.8696 60.2053 38.6859 59.9079 38.464C59.1904 37.9286 57.8599 37.3939 55.9781 36.9037L54.541 41.4925C56.3866 41.0937 57.8645 40.6509 58.9086 40.1821C59.5094 39.9123 59.9378 39.6464 60.2073 39.398C60.4705 39.1554 60.5099 38.9995 60.5135 38.9401ZM5.91845 36.8837C4.01347 37.3749 2.66228 37.9117 1.92954 38.4508C1.7169 38.6072 1.57924 38.7477 1.4966 38.8645C1.48832 38.8928 1.48622 38.9143 1.48622 38.9306C1.48622 38.981 1.51344 39.1386 1.78668 39.3924C2.05128 39.6383 2.47248 39.9019 3.06408 40.1698C4.08966 40.6341 5.54107 41.0733 7.35468 41.4698L5.91845 36.8837ZM10.892 42.1176C16.1935 42.9332 23.2488 43.4319 31 43.4319C38.7027 43.4319 45.7182 42.9394 51.0084 42.1328L51.7698 37.2366L51.8344 36.0472C46.4526 35.1548 39.0671 34.6024 30.9098 34.6024C22.7942 34.6024 15.4424 35.1492 10.0676 36.0336L10.133 37.2366L10.892 42.1176ZM2.64534 32.7974L2.65237 32.7665H2.6812C3.3563 30.0715 15.7559 25.0987 31.0133 25.0987C46.2706 25.0987 58.7675 30.0715 59.4426 32.7665H59.4643C59.4366 15.217 46.7279 1 31.0549 1C15.3727 1 2.65824 15.2337 2.64534 32.7974Z" stroke="black" stroke-width="2"/>
</svg>
